# xmcd
#
# Track frame offsets:
#	150
#	12469
#	30391
#	48580
#	61678
#	79293
#	95337
#	111271
#	126185
#	142475
#	156188
#	170044
#	187934
#	201298
#	216447
#	232778
#
# Disc length: 3273 seconds
#
# Revision: 0
# Processed by: cddbd v1.5.2PL0 Copyright (c) Steve Scherf et al.
# Submitted via: VUPlayer 2.49
#
DISCID=e30cc710
DTITLE=André Hazes - André Hazes is Oranje
DYEAR=2008
DGENRE=fOLK
TTITLE0=Wij houden van Oranje
TTITLE1=Oranje boven aan
TTITLE2=Samen kunnen wij Europa aan
TTITLE3=Good Luck Oranje
TTITLE4=Wij allemaal
TTITLE5=Aan ons is de Glorie
TTITLE6=Dat is mijn voetballand
TTITLE7=Oranje, mijn Nederland
TTITLE8=Oranje, You'll Never Walk Alone
TTITLE9=Ik heb U lief mijn Nederland
TTITLE10=We Are the Champions
TTITLE11=Bloed, zweet en tranen
TTITLE12=Alle hoeken van het veld =Medley=
TTITLE13=Nederland Oranjeland
TTITLE14=Nederland, mijn droom komt uit
TTITLE15=You'll Never Walk Alone
EXTD=
EXTT0=
EXTT1=
EXTT2=
EXTT3=
EXTT4=
EXTT5=
EXTT6=
EXTT7=
EXTT8=
EXTT9=
EXTT10=
EXTT11=
EXTT12=
EXTT13=
EXTT14=
EXTT15=
PLAYORDER=
